HIERARCHY
ROOT pelvis
{
  OFFSET 0 100 0
  CHANNELS 6 Xposition Yposition Zposition Zrotation Xrotation Yrotation
  JOINT pelvis_right_femur
  {
    OFFSET -10.78128 -3.44521 -0.5502486
    CHANNELS 3 Zrotation Xrotation Yrotation
    JOINT right_femur_tibia
    {
      OFFSET -0.8047443 -44.0398 -0.1307829
      CHANNELS 3 Zrotation Xrotation Yrotation
      JOINT right_tibia_foot
      {
        OFFSET 3.006224 -47.83518 -5
        CHANNELS 3 Zrotation Xrotation Yrotation
        End Site
        {
          OFFSET 0 -5 15
        }
      }
    }
  }
  JOINT pelvis_left_femur
  {
    OFFSET 10.78128 -3.44521 -0.5502486
    CHANNELS 3 Zrotation Xrotation Yrotation
    JOINT left_femur_tibia
    {
      OFFSET 0.8047443 -44.0398 -0.1307829
      CHANNELS 3 Zrotation Xrotation Yrotation
      JOINT left_tibia_foot
      {
        OFFSET -4.370144 -48.10324 -4.275266
        CHANNELS 3 Zrotation Xrotation Yrotation
        End Site
        {
          OFFSET 0 -5 15
        }
      }
    }
  }
  JOINT pelvis_spine1
  {
    OFFSET 0 6.468898 -3.129235
    CHANNELS 3 Zrotation Xrotation Yrotation
    JOINT spine1
    {
      OFFSET 0 23.15396 4.99043
      CHANNELS 3 Zrotation Xrotation Yrotation
      JOINT spine2
      {
        OFFSET 0 20.79997 -5.064912
        CHANNELS 3 Zrotation Xrotation Yrotation
        JOINT neck
        {
          OFFSET 0 14.38658 9.616178
          CHANNELS 3 Zrotation Xrotation Yrotation
          End Site
          {
            OFFSET 0 20 0
          }
        }
      }
      JOINT right_manubrium
      {
        OFFSET -5.722621 16.35077 3.967754
        CHANNELS 3 Zrotation Xrotation Yrotation
        JOINT right_clavicle
        {
          OFFSET -13.16364 1.694482 -4.693211
          CHANNELS 3 Zrotation Xrotation Yrotation
          JOINT right_humerus
          {
            OFFSET -28.5034 -0.3100689 -2.792744
            CHANNELS 3 Zrotation Xrotation Yrotation
            JOINT right_radius
            {
              OFFSET -25.15693 0.02248979 -1.271978
              CHANNELS 3 Zrotation Xrotation Yrotation
              End Site
              {
                OFFSET -15 0 0
              }
            }
          }
        }
      }
      JOINT left_manubrium
      {
        OFFSET 5.722621 16.35077 3.967754
        CHANNELS 3 Zrotation Xrotation Yrotation
        JOINT left_clavicle
        {
          OFFSET 13.16364 1.694482 -4.693211
          CHANNELS 3 Zrotation Xrotation Yrotation
          JOINT left_humerus
          {
            OFFSET 29.39168 -1.063119 -2.237045
            CHANNELS 3 Zrotation Xrotation Yrotation
            JOINT left_radius
            {
              OFFSET 24.59957 -0.9528479 0.9047498
              CHANNELS 3 Zrotation Xrotation Yrotation
              End Site
              {
                OFFSET 15 -0 -0
              }
            }
          }
        }
      }
    }
  }
}
MOTION
Frames: 17
Frame Time: 0.0416666666667
1690.402 102.0154 2397.473 6.731595 -2.175352 67.62415 4.895648 -0.682882 5.50982 -0 14.94565 -0 -1.326182 -8.999674 -5.187728 -2.574313 -7.359418 -6.474302 -0 60.60013 -0 -7.780837 -5.478351 15.86236 -2.375593 0.1460666 6.350395 0.6859481 8.238143 -5.319296 0.6216636 23.03692 7.161946 3.910724 -21.89881 6.928385 5.03185 -18.79436 11.67519 81.96217 39.34816 -12.56058 -0 0 14.7471 -20.63394 13.35386 12.15037 4.263616 -19.31793 -2.013055 -92.03716 29.76997 22.7906 0 0 -19.98832 -0.1429988 12.09733 16.68715
1695.817 102.6106 2399.669 7.55457 -2.149221 66.75584 4.391473 3.238084 5.884895 -0 14.27519 -0 -0.1840785 -9.966371 -5.00348 -1.862704 -11.88647 -5.471701 -0 56.50453 -0 -7.488847 -5.917005 17.50499 -1.825289 0.1892609 6.177993 0.7597862 8.219879 -5.493008 0.5786239 22.8951 7.387974 4.004939 -22.19509 7.18578 5.223014 -18.35593 11.59642 82.80018 39.57713 -13.98732 -0 0 14.0472 -19.29629 13.3441 11.33651 4.593027 -19.73267 -1.98989 -92.25042 30.10414 22.63543 0 0 -20.88023 0.36055 12.23518 16.39592
1701.122 102.5447 2401.808 7.867077 -2.292277 65.92806 4.184745 7.258445 5.602338 -0 13.92032 -0 -0.4208716 -12.2884 -4.592591 -0.8230955 -16.49651 -4.747659 -0 48.06859 -0 -7.041582 -6.660493 19.1602 -1.368367 0.2174773 6.028029 0.8337079 8.252716 -5.645694 0.5411629 22.7641 7.576014 4.078155 -22.42983 7.398212 5.419134 -17.96018 11.53788 83.50073 39.69142 -15.1905 -0 0 13.43273 -18.10782 13.29623 10.63994 4.841309 -20.07838 -2.018942 -92.38699 30.30017 22.44741 0 0 -21.60813 0.8221223 12.29266 16.09152
1706.423 101.8386 2403.839 7.036432 -2.306693 65.15138 4.11792 11.08355 4.800582 -0 13.17006 -0 -1.089112 -15.16093 -3.54019 0.5666228 -21.5633 -3.945347 -0 36.64137 -0 -6.531302 -7.044668 20.02335 -0.9941692 0.2398205 5.922321 0.8995522 8.319504 -5.759346 0.5026646 22.64744 7.729302 4.126089 -22.61425 7.568743 5.597176 -17.62443 11.50146 84.03148 39.74275 -16.11965 -0 0 12.91714 -17.14987 13.24747 10.10603 5.014009 -20.34721 -2.07362 -92.45616 30.32904 22.26628 0 0 -22.15627 1.284971 12.25027 15.72612
1711.998 100.734 2405.796 5.460568 -2.091072 64.43971 3.867526 14.12155 4.104388 -0 12.78446 -0 -0.9205954 -16.87415 -2.125683 1.858501 -25.73058 -2.998105 -0 25.93311 -0 -6.013852 -6.861427 19.97031 -0.7639521 0.2439108 5.848917 0.9534405 8.384233 -5.836768 0.4718466 22.57597 7.827199 4.152154 -22.7409 7.679793 5.735925 -17.39445 11.48271 84.38452 39.76483 -16.74344 -0 0 12.55489 -16.44805 13.1684 9.73551 5.113452 -20.52132 -2.13878 -92.48216 30.32215 22.11098 0 0 -22.51986 1.635481 12.18966 15.41785
1718.052 99.55078 2407.751 4.243752 -1.696424 63.81775 3.149286 16.17008 3.978448 -0 14.15325 -0 0.1627818 -16.37489 -1.032682 2.223476 -27.75921 -2.559344 -0 19.83692 -0 -5.573209 -6.581515 19.45796 -0.7808386 0.2012488 5.792554 0.9925526 8.407759 -5.882315 0.4609962 22.58985 7.83952 4.162866 -22.78964 7.702362 5.829932 -17.33613 11.48023 84.51665 39.78123 -16.99023 -0 0 12.44189 -16.01389 12.99419 9.530842 5.139452 -20.5696 -2.202915 -92.49569 30.4536 21.99786 0 0 -22.67471 1.71456 12.21445 15.31962
1724.555 98.5016 2409.752 4.310585 -1.388764 63.31853 2.036821 17.51661 4.469573 -0 18.27551 -0 1.275313 -14.5085 -1.036471 1.253842 -27.3436 -3.322577 -0 18.66282 -0 -5.244758 -6.745519 19.25973 -1.022967 0.1120041 5.737005 1.02139 8.382063 -5.909049 0.4707007 22.6827 7.777369 4.166226 -22.77339 7.64851 5.890268 -17.42932 11.48859 84.47275 39.79538 -16.93908 -0 0 12.55188 -15.7737 12.7199 9.444493 5.111468 -20.51153 -2.263167 -92.51585 30.77172 21.92137 0 0 -22.66832 1.509944 12.35087 15.45827
1731.364 97.80801 2411.807 5.350053 -1.187032 63.02603 0.7184013 18.11436 5.179233 -0 25.06838 -0 1.726859 -11.96569 -2.020085 -0.6615046 -25.01951 -5.017355 -0 20.02394 -0 -4.762839 -7.358724 19.43608 -1.414632 -0.01131315 5.662127 1.051558 8.319528 -5.935352 0.4944857 22.83004 7.668488 4.167208 -22.7235 7.548591 5.9344 -17.61145 11.50139 84.35089 39.79451 -16.75035 -0 0 12.78955 -15.59697 12.3531 9.399734 5.049057 -20.38702 -2.333546 -92.5478 31.25912 21.85461 0 0 -22.58311 1.084265 12.57702 15.78852
1738.295 97.73842 2413.871 6.318033 -0.8325634 63.07758 -0.5480205 17.20753 5.47595 -0 33.8655 -0 1.429655 -7.935634 -3.152761 -2.828916 -21.48012 -6.712887 -0 21.71487 -0 -3.779516 -8.181384 19.39709 -1.977372 -0.1780795 5.540908 1.100468 8.218621 -5.974753 0.5288493 23.04274 7.509914 4.162453 -22.65434 7.402592 5.973972 -17.87414 11.52065 84.18597 39.75367 -16.48016 -0 0 13.13131 -15.39056 11.83206 9.359781 4.938867 -20.18596 -2.444282 -92.58966 31.96144 21.76744 0 0 -22.43565 0.4018991 12.89046 16.32598
1745.081 98.43706 2415.851 6.653547 -0.3775575 63.59114 -1.26827 13.99764 5.051246 -0 43.70173 -0 0.8264398 -2.171956 -3.905578 -4.603501 -17.15255 -7.699932 -0 22.66514 -0 -2.411613 -9.112373 18.87346 -2.785594 -0.3893907 5.333732 1.191516 8.053233 -6.035238 0.5746131 23.35291 7.273844 4.134556 -22.5654 7.18343 5.97535 -18.24661 11.55401 83.97054 39.60074 -16.0882 -0 0 13.60313 -15.20065 11.08952 9.366809 4.720202 -19.84114 -2.633306 -92.62198 32.94213 21.64644 0 0 -22.15292 -0.7158625 13.29145 17.20543
1751.49 99.70565 2417.682 6.722486 -0.3079832 64.55917 -1.130888 8.844921 4.312383 -0 52.17971 -0 0.5731044 2.691156 -4.566408 -5.518891 -12.46225 -7.988726 -0 22.50737 -0 -1.4101 -10.16432 18.19873 -3.706287 -0.5535121 5.027361 1.342089 7.825319 -6.114706 0.6237358 23.72473 6.969815 4.048552 -22.47318 6.895431 5.83347 -18.65784 11.60191 83.77654 39.23041 -15.6063 -0 0 14.07553 -15.26965 10.27333 9.531261 4.320822 -19.32956 -2.911019 -92.55966 33.97088 21.49515 0 0 -21.65687 -2.282573 13.6548 18.44832
1757.49 101.0699 2419.358 7.097102 -0.7743854 65.80425 -0.5273376 3.203975 3.854357 -0 56.4055 -0 0.8163749 3.784566 -5.582913 -5.649457 -7.902347 -8.045604 -0 21.3953 -0 -1.205669 -11.27589 17.67045 -4.364968 -0.535028 4.736644 1.520607 7.645917 -6.179458 0.6529159 24.02161 6.677352 3.891858 -22.39338 6.600752 5.523898 -18.91483 11.65808 83.65463 38.71333 -15.10298 -0 0 14.26001 -15.83034 9.774858 9.936098 3.790328 -18.80816 -3.192184 -92.2552 34.4105 21.2748 0 0 -21.00626 -3.659695 13.74174 19.52305
1763.192 102.1905 2420.916 7.653241 -1.327986 67.11899 -0.004143573 -1.987861 3.68172 -0 56.22065 -0 1.213197 2.148711 -6.755678 -5.464208 -3.73175 -8.052243 -0 19.84482 -0 -1.464773 -12.36705 17.19123 -4.645923 -0.3634367 4.618867 1.652809 7.626192 -6.185513 0.6543713 24.15501 6.462257 3.720483 -22.28822 6.34429 5.216671 -18.97018 11.7246 83.43757 38.26925 -14.48038 -0 0 14.16585 -16.8097 9.764485 10.54896 3.305759 -18.45495 -3.35815 -91.70773 33.9702 20.95515 0 0 -20.33914 -4.21195 13.50783 19.87555
1768.718 102.9334 2422.415 8.092681 -1.660622 68.38585 0.2669264 -6.594679 3.562901 -0 53.26125 -0 1.653786 -0.2339883 -7.821292 -5.274951 0.03897334 -8.015177 -0 18.26976 -0 -1.946939 -13.44966 16.6122 -4.706794 -0.163455 4.680989 1.703703 7.750233 -6.133563 0.6458367 24.14621 6.326281 3.586969 -22.12326 6.135978 5.023753 -18.93427 11.79876 83.04294 37.93391 -13.71306 -0 0 14.04136 -17.95998 10.07296 11.25118 2.95635 -18.26664 -3.407578 -91.10605 32.98407 20.63598 0 0 -19.71808 -4.105488 13.09599 19.65609
1774.164 103.2161 2423.914 8.35129 -1.74674 69.55082 0.2966213 -10.82461 3.388988 -0 48.38641 -0 2.11718 -2.685799 -8.765258 -5.169576 3.621426 -7.955771 -0 16.80799 -0 -2.606321 -14.59377 15.89263 -4.673522 -0.002123279 4.853318 1.680806 7.954293 -6.045591 0.6443481 24.04953 6.24533 3.499047 -21.90227 5.976799 4.929773 -18.89575 11.87054 82.54636 37.64206 -12.89275 -0 0 14.02944 -19.10569 10.51008 11.93835 2.728552 -18.17054 -3.396582 -90.5994 31.83923 20.42296 0 0 -19.15176 -3.738697 12.63272 19.2296
1779.613 102.9832 2425.475 8.393511 -1.598036 70.58102 0.1081389 -14.83666 3.097171 -0 41.82193 -0 2.510036 -4.919555 -9.589249 -5.16989 7.182561 -7.901977 -0 15.5422 -0 -3.422443 -15.86127 15.02703 -4.602128 0.1082373 5.080935 1.602702 8.189877 -5.936667 0.6562304 23.90927 6.19826 3.445769 -21.64463 5.862804 4.891805 -18.88934 11.93282 82.02817 37.36065 -12.09266 -0 0 14.15313 -20.17753 10.97767 12.562 2.587404 -18.11607 -3.362486 -90.23197 30.74047 20.34726 0 0 -18.63718 -3.339763 12.18594 18.80624
1785.131 102.2274 2427.156 8.155966 -1.230994 71.46194 -0.2440572 -18.65883 2.637718 -0 33.84966 -0 2.705841 -6.635357 -10.24644 -5.266362 10.77404 -7.9169 -0 14.63728 -0 -4.402542 -17.28302 14.01787 -4.518813 0.1746553 5.325134 1.490998 8.423722 -5.818383 0.6805495 23.7575 6.171586 3.41482 -21.37538 5.788195 4.879122 -18.91895 11.98222 81.54247 37.08979 -11.36118 -0 0 14.3808 -21.14051 11.42691 13.09994 2.503934 -18.07741 -3.323544 -89.99616 29.78336 20.39021 0 0 -18.17753 -3.00493 11.79345 18.47211
